<mxfile host="app.diagrams.net" modified="2024-05-09T13:02:18.004Z" agent="Mozilla/5.0 (X11; Ubuntu; Linux x86_64; rv:124.0) Gecko/20100101 Firefox/124.0" etag="RIEgJR1lOU2XZQPzaLTU" version="24.3.1" type="github">
  <diagram name="Page-1" id="8j3W_qDydUsUUFMx35oo">
    <mxGraphModel dx="1434" dy="766" grid="1" gridSize="10" guides="1" tooltips="1" connect="1" arrows="1" fold="1" page="1" pageScale="1" pageWidth="850" pageHeight="1100" math="0" shadow="0">
      <root>
        <mxCell id="0" />
        <mxCell id="1" parent="0" />
        <mxCell id="jnwht9hxHKNwCcqdQKuF-1" value="CLI" style="swimlane;whiteSpace=wrap;html=1;" vertex="1" parent="1">
          <mxGeometry x="110" y="70" width="240" height="90" as="geometry" />
        </mxCell>
        <mxCell id="jnwht9hxHKNwCcqdQKuF-4" value="&lt;div align=&quot;left&quot;&gt;&lt;b&gt;- golang&lt;/b&gt;&lt;/div&gt;&lt;div align=&quot;left&quot;&gt;&lt;b&gt;- Charm&lt;/b&gt;&lt;/div&gt;&lt;div align=&quot;left&quot;&gt;&lt;b&gt;- charm tool for building ssh apps&lt;/b&gt;&lt;/div&gt;&lt;div align=&quot;left&quot;&gt;&lt;b&gt;- samba and related tools&lt;br&gt;&lt;/b&gt;&lt;/div&gt;" style="text;html=1;align=left;verticalAlign=middle;resizable=0;points=[];autosize=1;strokeColor=none;fillColor=none;" vertex="1" parent="jnwht9hxHKNwCcqdQKuF-1">
          <mxGeometry x="20" y="20" width="220" height="70" as="geometry" />
        </mxCell>
        <mxCell id="jnwht9hxHKNwCcqdQKuF-2" value="Frontend" style="swimlane;whiteSpace=wrap;html=1;" vertex="1" parent="1">
          <mxGeometry x="365" y="70" width="200" height="90" as="geometry" />
        </mxCell>
        <mxCell id="jnwht9hxHKNwCcqdQKuF-3" value="Backend" style="swimlane;whiteSpace=wrap;html=1;" vertex="1" parent="1">
          <mxGeometry x="580" y="70" width="210" height="90" as="geometry" />
        </mxCell>
        <mxCell id="jnwht9hxHKNwCcqdQKuF-6" value="&lt;div align=&quot;left&quot;&gt;&lt;b&gt;- Gin or other golang framework&lt;/b&gt;&lt;/div&gt;&lt;div align=&quot;left&quot;&gt;&lt;b&gt;&lt;br&gt;&lt;/b&gt;&lt;/div&gt;" style="text;html=1;align=left;verticalAlign=middle;resizable=0;points=[];autosize=1;strokeColor=none;fillColor=none;" vertex="1" parent="jnwht9hxHKNwCcqdQKuF-3">
          <mxGeometry x="10" y="28" width="210" height="40" as="geometry" />
        </mxCell>
        <mxCell id="jnwht9hxHKNwCcqdQKuF-5" value="&lt;b&gt;- React &lt;/b&gt;" style="text;html=1;align=center;verticalAlign=middle;resizable=0;points=[];autosize=1;strokeColor=none;fillColor=none;" vertex="1" parent="1">
          <mxGeometry x="370" y="98" width="60" height="30" as="geometry" />
        </mxCell>
      </root>
    </mxGraphModel>
  </diagram>
</mxfile>
